<?xml version="1.0" encoding="utf-8"?>
<!-- Uploaded to SVGRepo https://www.svgrepo.com -->
<svg version="1.1" id="Layer_1" xmlns="http://www.w3.org/2000/svg" xmlns:xlink="http://www.w3.org/1999/xlink" x="0px" y="0px"
	 width="245px" height="256px" viewBox="0 0 245 256" enable-background="new 0 0 245 256" xml:space="preserve">
<path d="M190,63.24V7h-31v27.73L122.97,1.82L1.94,110.15l18.4,20.74L39,114.04V254h167V115.08l18.36,16.85l18.89-20.22L190,63.24z
	 M171.16,171.14h-51.37v7.71c3.46,0.35,6.22,3.34,6.22,6.91v33.17c0,3.8-3.11,6.91-6.91,6.91h-3.22c-3.8,0-6.91-3.11-6.91-6.91
	v-33.17c0-3.57,2.76-6.56,6.22-6.91v-12.32h51.48v-28.56h-5.53v7.14c0,3.8-3.11,6.91-6.91,6.91H80.75c-3.8,0-6.91-3.11-6.91-6.91
	v-16.36c0-3.8,3.11-6.91,6.91-6.91h73.36c3.81,0,6.91,3.11,6.91,6.91v4.61h10.14V171.14z"/>
</svg>
